PathFileType	4	(X/Y/Z)	2014001\dynamic\2014001_C3_01.trc
DataRate	CameraRate	NumFrames	NumMarkers	Units	OrigDataRate	OrigDataStartFrame	OrigNumFrames
100.000000	100.000000	4	52	mm	100.000000	120	192
Frame#	Time	L_IAS			L_IPS			R_IPS			R_IAS			L_FTC			L_FLE			L_FME			L_FAX			L_TTC			L_FAL			L_TAM			L_FCC			L_FM1			L_FM2			L_FM5			R_FTC			R_FLE			R_FME			R_FAX			R_TTC			R_FAL			R_TAM			R_FCC			R_FM1			R_FM2			R_FM5			CV7			TV10			SXS			SJN			L_SIA			L_SRS			L_SAA			L_SAE			L_HLE			L_HME			L_UOA			L_RSP			L_UHE			L_HM2			L_HM5			R_SIA			R_SRS			R_SAA			R_SAE			R_HLE			R_HME			R_UOA			R_RSP			R_UHE			R_HM2			R_HM5			
		X1	Y1	Z1	X2	Y2	Z2	X3	Y3	Z3	X4	Y4	Z4	X5	Y5	Z5	X6	Y6	Z6	X7	Y7	Z7	X8	Y8	Z8	X9	Y9	Z9	X10	Y10	Z10	X11	Y11	Z11	X12	Y12	Z12	X13	Y13	Z13	X14	Y14	Z14	X15	Y15	Z15	X16	Y16	Z16	X17	Y17	Z17	X18	Y18	Z18	X19	Y19	Z19	X20	Y20	Z20	X21	Y21	Z21	X22	Y22	Z22	X23	Y23	Z23	X24	Y24	Z24	X25	Y25	Z25	X26	Y26	Z26	X27	Y27	Z27	X28	Y28	Z28	X29	Y29	Z29	X30	Y30	Z30	X31	Y31	Z31	X32	Y32	Z32	X33	Y33	Z33	X34	Y34	Z34	X35	Y35	Z35	X36	Y36	Z36	X37	Y37	Z37	X38	Y38	Z38	X39	Y39	Z39	X40	Y40	Z40	X41	Y41	Z41	X42	Y42	Z42	X43	Y43	Z43	X44	Y44	Z44	X45	Y45	Z45	X46	Y46	Z46	X47	Y47	Z47	X48	Y48	Z48	X49	Y49	Z49	X50	Y50	Z50	X51	Y51	Z51	X52	Y52	Z52	

121	1.2	330.8192138671876	855.506958007813	1146.474243164063	261.0561523437501	892.7311401367192	966.491088867188	173.4734497070313	895.461547851563	963.6813964843755	89.27065277099612	860.2194213867192	1140.72705078125	390.2501525878909	766.5773925781252	1076.513305664063	367.685028076172	435.6132507324221	1209.024169921875	249.7640686035157	432.0999450683596	1239.278198242188	370.2825317382814	374.6390991210939	1214.0263671875	333.074432373047	384.0306701660159	1286.777587890625	340.8130187988282	79.221061706543	1352.765747070313	258.5384521484376	106.8075408935547	1380.76318359375	288.3096313476564	23.53415489196778	1343.6669921875	295.5895080566407	122.7197494506837	1497.499755859375	353.655242919922	125.3531188964844	1490.071655273438	383.079559326172	81.90824890136722	1455.861328125	35.25014877319337	776.723266601563	1029.5087890625	83.26113891601565	436.9703674316409	951.5847778320317	202.2377319335939	421.9243164062502	967.2929687500005	84.37941741943362	376.5360412597657	914.6613159179692	132.0313568115235	353.7975158691407	975.099243164063	147.0501251220704	83.93389892578128	795.5790405273442	229.4067382812501	97.46673583984381	837.357543945313	205.8914947509767	55.17551422119143	748.822692871094	215.9897766113282	26.29133033752443	932.7835083007817	150.6937866210938	36.62476730346681	938.143920898438	108.0274353027344	23.150297164917	874.1471557617192	203.2835998535157	1359.970947265625	1014.277954101563	200.4354553222657	1130.662475585938	941.4125976562505	229.6627807617189	1126.396118164063	1174.5078125	227.2766876220704	1291.6796875	1137.114013671875	281.404754638672	1168.422729492188	924.875610351563	280.4326782226564	1300.331298828125	952.7944335937505	394.9847717285159	1293.598022460938	1001.134704589844	395.0109863281252	1302.90087890625	1045.867797851563	456.912780761719	1042.873657226563	929.1030273437505	377.616912841797	1012.255615234375	917.9809570312505	421.1727600097659	1020.436096191407	898.4940795898442	457.9262390136721	792.8312988281255	937.1608276367192	506.5792541503909	815.4730834960942	876.929321289063	470.8351745605471	705.4268798828127	924.705200195313	507.1083679199221	747.9696044921877	837.4538574218755	79.8719177246094	1173.485107421875	962.4765625000005	110.0062103271485	1294.334228515625	984.4196166992192	20.47217559814454	1292.77099609375	1077.020874023438	44.20463180541994	1298.586791992188	1121.731689453125	-51.35189056396487	1011.248901367188	1186.380737304688	17.25468826293946	976.545043945313	1155.363037109375	-29.94989395141603	970.7277221679692	1167.573608398438	23.15160942077637	914.8627319335942	1384.007202148438	-43.52072525024415	875.4336547851567	1360.808227539063	20.20870018005372	877.1502075195317	1470.248168945313	-36.12699127197267	815.5011596679692	1410.6201171875	
122	1.21	331.4676513671876	853.665405273438	1157.770751953125	262.2309875488282	891.1813354492192	977.703491210938	174.7945404052735	894.234252929688	974.6951293945317	90.02242279052737	858.598266601563	1151.474487304688	391.0333251953127	764.808532714844	1088.127075195313	367.1490478515626	434.8502197265627	1222.205078125	248.9096527099611	431.6688537597659	1251.30224609375	369.5565185546876	373.6744384765626	1227.0732421875	331.8880920410157	383.3092041015626	1299.53564453125	338.8440856933595	78.67719268798831	1365.330810546875	256.4839782714845	106.3433151245118	1393.150024414063	286.2361145019532	23.19120597839356	1356.100341796875	293.0001525878907	122.2096328735352	1509.973266601563	351.1525268554689	124.5824127197266	1502.868774414063	380.4663391113282	80.98547363281253	1468.746826171875	35.93438720703126	775.748657226563	1039.49169921875	83.41236114501956	436.8407897949221	958.422729492188	202.454559326172	421.3477172851565	974.1571655273442	84.3071212768555	376.8623657226564	920.8701782226567	132.0424194335938	353.2064514160157	980.731811523438	146.2882843017579	86.16474914550784	796.8067016601567	228.896697998047	99.07642364501959	838.5449218750005	204.9891510009767	58.35746002197268	749.2902832031252	215.7571258544923	26.446834564209	932.862426757813	150.6013183593751	36.56847381591798	938.338500976563	107.9138717651368	23.31693267822266	874.336791992188	205.0841827392579	1358.355712890625	1025.421630859375	201.7606048583986	1129.148803710938	952.4885253906255	230.6743927001954	1124.54248046875	1185.5029296875	228.8018341064454	1289.924560546875	1148.318603515625	282.7928161621095	1166.6357421875	935.9301757812505	282.0912475585939	1298.580810546875	964.0452270507817	396.6777954101565	1291.442260742188	1012.2783203125	396.6161193847659	1300.738891601563	1057.134033203125	457.998718261719	1040.442138671875	940.5861206054692	378.6755676269532	1009.872314453125	929.7663574218755	422.2197570800784	1018.087524414063	910.0427856445317	458.7077331542971	790.447387695313	948.6937866210942	507.3127746582034	813.0185546875005	888.395874023438	471.4444274902346	703.0627441406252	936.0504760742192	507.6395568847659	745.5320434570315	848.8750000000005	81.51239776611331	1172.132202148438	973.2069702148442	111.7622299194337	1293.03515625	995.411987304688	22.06562995910645	1291.396118164063	1087.874145507813	45.73548889160158	1297.109497070313	1132.660522460938	-50.0685958862305	1009.52490234375	1196.118041992188	18.54067611694337	974.857543945313	1165.034790039063	-28.59190940856935	969.0275268554692	1177.054443359375	24.94201278686525	913.2277832031255	1393.639404296875	-41.75904083251955	873.6852416992192	1370.600341796875	22.18581581115723	875.7699584960942	1479.896240234375	-34.17796707153322	813.8779296875005	1420.572875976563	
123	1.22	332.1944580078126	852.1315307617192	1169.346435546875	263.4360656738282	889.7844238281255	989.1836547851567	176.1541442871094	893.1113281250005	985.9916992187505	90.82176208496097	857.0537719726567	1162.429077148438	391.9025878906252	763.3347778320315	1100.119995117188	366.739227294922	434.4109802246096	1235.888916015625	248.3105468750001	431.5329895019534	1263.831787109375	368.9817199707032	372.9767150878907	1240.348510742188	330.7192687988282	382.4039306640626	1312.483276367188	336.904510498047	77.53395843505862	1375.620361328125	254.414031982422	104.9182281494141	1403.3134765625	284.2734375000001	22.42727088928223	1365.622680664063	290.3077392578126	119.7271118164063	1520.323852539063	348.544403076172	121.9585571289063	1513.57421875	377.7838134765626	78.625602722168	1479.199096679688	36.74018859863283	774.7983398437505	1049.744262695313	83.63448333740237	436.8236083984377	965.5507202148442	202.7281799316407	420.8648376464846	981.2804565429692	84.27683258056643	377.3199462890626	927.320922851563	132.062240600586	352.7554626464845	986.6040649414067	145.4646301269532	88.65675354003909	798.158325195313	228.297576904297	100.8908309936524	839.869506835938	203.9965972900392	61.87056732177737	749.8675537109377	215.4645996093751	26.61428451538087	932.9994506835942	150.4679260253907	36.54434967041017	938.602416992188	107.7817459106446	23.50653076171876	874.5881958007817	206.9611816406251	1356.867065429688	1036.669555664063	203.1719207763673	1127.727172851563	963.7651977539067	231.8160095214845	1122.892456054688	1196.732666015625	230.3802795410157	1288.316650390625	1159.654541015625	284.2742614746095	1164.966674804688	947.177368164063	283.8560180664064	1296.943237304688	975.441284179688	398.5104064941409	1289.435546875	1023.670715332032	398.3050231933596	1298.71484375	1068.5947265625	459.2336730957034	1038.04248046875	952.486450195313	379.8828430175782	1007.558166503907	941.8302612304692	423.4602355957034	1015.766052246094	921.987182617188	459.5420532226565	788.100219726563	960.857543945313	508.1788024902346	810.5397949218755	900.544799804688	472.1182250976565	700.6909790039065	948.0946655273442	508.3797912597659	743.0274047851565	861.0719604492192	83.22908782958987	1170.895141601563	984.0808105468755	113.5911254882813	1291.849487304688	1006.530517578125	23.73018074035645	1290.149169921875	1098.857055664063	47.32582855224611	1295.76171875	1143.714111328125	-48.67395782470706	1007.805786132813	1205.61328125	19.94495201110841	973.2283325195317	1174.425415039063	-27.10166358947755	967.3837890625005	1186.153442382813	26.7520046234131	911.092895507813	1402.843872070313	-39.98714828491212	871.5131225585942	1379.838745117188	24.16570472717287	873.6462402343755	1489.013061523438	-32.24830245971681	811.7022094726567	1429.80712890625	
124	1.23	332.9831542968751	850.934204101563	1181.231079101563	264.6715698242189	888.5709838867192	1000.955444335938	177.5450744628907	892.1050415039067	997.5908203125005	91.65489196777347	855.5954589843755	1173.604370117188	392.8570251464846	762.1973266601565	1112.504638671875	366.4572753906251	434.2664184570315	1249.947509765625	247.959197998047	431.6668090820315	1276.743896484375	368.5718078613282	372.533905029297	1253.800903320313	329.5783081054689	381.3617553710939	1325.569702148438	335.0718078613282	75.87287139892581	1383.936645507813	252.3948822021486	102.6460800170899	1411.521728515625	282.5006103515626	21.31899642944337	1372.565063476563	287.553680419922	115.4340591430665	1528.818237304688	345.8764953613282	117.6297225952149	1522.467041015625	375.1058044433595	74.97061157226565	1487.520141601563	37.67092895507814	773.8796997070317	1060.276611328125	83.92285156250003	436.9265747070315	972.991577148438	203.0571746826173	420.4739990234377	988.6880493164067	84.29667663574222	377.9180603027345	934.0248413085942	132.0722351074219	352.4530639648439	992.7404785156255	144.5853576660157	91.41343688964847	799.6533813476567	227.5977478027345	102.906723022461	841.3678588867192	202.9288940429689	65.71881866455081	750.6038208007815	215.1165313720704	26.77386856079103	933.1885375976567	150.2972259521485	36.53652954101564	938.929809570313	107.633041381836	23.71241760253907	874.9047851562505	208.9112396240236	1355.523315429688	1048.012939453125	204.6765747070314	1126.40771484375	975.2536621093755	233.0840454101564	1121.476318359375	1208.195556640625	232.0118865966798	1286.8857421875	1171.114990234375	285.850311279297	1163.422973632813	958.6312866210942	285.7238769531251	1295.432495117188	986.9762573242192	400.4674072265627	1287.598999023438	1035.297119140625	400.0763854980471	1296.85791015625	1080.2373046875	460.610290527344	1035.701904296875	964.8049926757817	381.2269287109376	1005.346252441407	954.1569213867192	424.8824768066409	1013.496276855469	934.3273315429692	460.4151306152346	785.8186035156255	973.654418945313	509.1684265136721	808.061889648438	913.3825073242192	472.832946777344	698.3323974609377	960.833374023438	509.3269653320315	740.4856567382815	874.0499877929692	85.02471160888675	1169.781372070313	995.1024780273442	115.4915771484376	1290.78662109375	1017.770874023438	25.46422958374025	1289.0478515625	1109.96337890625	48.97421646118167	1294.563598632813	1154.8896484375	-47.16714477539064	1006.116333007813	1214.879272460938	21.46253204345704	971.6864624023442	1183.537963867188	-25.48528861999513	965.818237304688	1194.903442382813	28.57165718078615	908.4713745117192	1411.61669921875	-38.21228408813478	868.9311523437505	1388.516479492188	26.13333892822267	870.7896118164067	1497.595336914063	-30.34647369384767	808.9821777343755	1438.311889648438	
